[ConversionWorker] Logging FFmpeg output to: ffmpeg_logs\ffmpeg_conversion_高冷12_wav_20250525_173934.log\n[ConversionWorker] Getting duration with command: ffprobe -v error -show_entries format=duration -of default=noprint_wrappers=1:nokey=1 Z:\Story\高冷\高冷12.wav\n[ConversionWorker] Duration for 高冷12.wav: 3402208 ms\n[ConversionWorker] Starting FFmpeg for 高冷12.wav: ffmpeg -i Z:\Story\高冷\高冷12.wav -b:a 128k -vn -y -loglevel error -stats -progress pipe:1 Z:\Story\高冷\高冷12.mp3\n[ConversionWorker] FFmpeg process started. PID: 30448\n[STDOUT RAW] bitrate= 123.9kbits/s\n[STDOUT RAW] total_size=81068\n[STDOUT RAW] out_time_us=5233958\n[STDOUT RAW] out_time_ms=5233958\n[STDOUT RAW] out_time=00:00:05.233958\n[STDOUT RAW] dup_frames=0\n[STDOUT RAW] drop_frames=0\n[STDOUT RAW] speed=10.2x\n[STDOUT RAW] progress=continue\n[STDERR RAW] size=      79KiB time=00:00:05.23 bitrate= 123.9kbits/s speed=10.2x\n[STDOUT RAW] bitrate= 125.9kbits/s\n[STDOUT RAW] total_size=157868\n[STDOUT RAW] out_time_us=10033958\n[STDOUT RAW] out_time_ms=10033958\n[STDOUT RAW] out_time=00:00:10.033958\n[STDOUT RAW] dup_frames=0\n[STDOUT RAW] drop_frames=0\n[STDOUT RAW] speed=9.64x\n[STDOUT RAW] progress=continue\n[STDERR RAW] size=     154KiB time=00:00:10.03 bitrate= 125.9kbits/s speed=9.64x\n[STDOUT RAW] bitrate= 126.6kbits/s\n[STDOUT RAW] total_size=236588\n[STDOUT RAW] out_time_us=14953958\n[STDOUT RAW] out_time_ms=14953958\n[STDOUT RAW] out_time=00:00:14.953958\n[STDOUT RAW] dup_frames=0\n[STDOUT RAW] drop_frames=0\n[STDOUT RAW] speed=9.64x\n[STDOUT RAW] progress=continue\n[STDERR RAW] size=     231KiB time=00:00:14.95 bitrate= 126.6kbits/s speed=9.64x\n[STDOUT RAW] bitrate= 125.6kbits/s\n[STDOUT RAW] total_size=1572864\n[STDOUT RAW] out_time_us=100153958\n[STDOUT RAW] out_time_ms=100153958\n[STDOUT RAW] out_time=00:01:40.153958\n[STDOUT RAW] dup_frames=0\n[STDOUT RAW] drop_frames=0\n[STDOUT RAW] speed=48.5x\n[STDOUT RAW] progress=continue\n[STDERR RAW] size=    1536KiB time=00:01:40.15 bitrate= 125.6kbits/s speed=48.5x\n[STDOUT RAW] bitrate= 127.5kbits/s\n[STDOUT RAW] total_size=3407872\n[STDOUT RAW] out_time_us=213793958\n[STDOUT RAW] out_time_ms=213793958\n[STDOUT RAW] out_time=00:03:33.793958\n[STDOUT RAW] dup_frames=0\n[STDOUT RAW] drop_frames=0\n[STDOUT RAW] speed=  83x\n[STDOUT RAW] progress=continue\n[STDERR RAW] size=    3328KiB time=00:03:33.79 bitrate= 127.5kbits/s speed=  83x\n[STDOUT RAW] bitrate= 121.5kbits/s\n[STDOUT RAW] total_size=4980736\n[STDOUT RAW] out_time_us=327817958\n[STDOUT RAW] out_time_ms=327817958\n[STDOUT RAW] out_time=00:05:27.817958\n[STDOUT RAW] dup_frames=0\n[STDOUT RAW] drop_frames=0\n[STDOUT RAW] speed= 106x\n[STDOUT RAW] progress=continue\n[STDERR RAW] size=    4864KiB time=00:05:27.81 bitrate= 121.5kbits/s speed= 106x\n[STDOUT RAW] bitrate= 124.3kbits/s\n[STDOUT RAW] total_size=6815744\n[STDOUT RAW] out_time_us=438697958\n[STDOUT RAW] out_time_ms=438697958\n[STDOUT RAW] out_time=00:07:18.697958\n[STDOUT RAW] dup_frames=0\n[STDOUT RAW] drop_frames=0\n[STDOUT RAW] speed= 121x\n[STDOUT RAW] progress=continue\n[STDERR RAW] size=    6656KiB time=00:07:18.69 bitrate= 124.3kbits/s speed= 121x\n[STDOUT RAW] bitrate= 126.9kbits/s\n[STDOUT RAW] total_size=8650752\n[STDOUT RAW] out_time_us=545569958\n[STDOUT RAW] out_time_ms=545569958\n[STDOUT RAW] out_time=00:09:05.569958\n[STDOUT RAW] dup_frames=0\n[STDOUT RAW] drop_frames=0\n[STDOUT RAW] speed= 131x\n[STDOUT RAW] progress=continue\n[STDERR RAW] size=    8448KiB time=00:09:05.56 bitrate= 126.9kbits/s speed= 131x\n[STDOUT RAW] bitrate= 126.1kbits/s\n[STDOUT RAW] total_size=10223616\n[STDOUT RAW] out_time_us=648385958\n[STDOUT RAW] out_time_ms=648385958\n[STDOUT RAW] out_time=00:10:48.385958\n[STDOUT RAW] dup_frames=0\n[STDOUT RAW] drop_frames=0\n[STDOUT RAW] speed= 139x\n[STDOUT RAW] progress=continue\n[STDERR RAW] size=    9984KiB time=00:10:48.38 bitrate= 126.1kbits/s speed= 139x\n[STDOUT RAW] bitrate= 125.2kbits/s\n[STDOUT RAW] total_size=11796480\n[STDOUT RAW] out_time_us=753793958\n[STDOUT RAW] out_time_ms=753793958\n[STDOUT RAW] out_time=00:12:33.793958\n[STDOUT RAW] dup_frames=0\n[STDOUT RAW] drop_frames=0\n[STDOUT RAW] speed= 146x\n[STDOUT RAW] progress=continue\n[STDERR RAW] size=   11520KiB time=00:12:33.79 bitrate= 125.2kbits/s speed= 146x\n[STDOUT RAW] bitrate= 127.7kbits/s\n[STDOUT RAW] total_size=13631488\n[STDOUT RAW] out_time_us=854065958\n[STDOUT RAW] out_time_ms=854065958\n[STDOUT RAW] out_time=00:14:14.065958\n[STDOUT RAW] dup_frames=0\n[STDOUT RAW] drop_frames=0\n[STDOUT RAW] speed= 150x\n[STDOUT RAW] progress=continue\n[STDERR RAW] size=   13312KiB time=00:14:14.06 bitrate= 127.7kbits/s speed= 150x\n[STDOUT RAW] bitrate= 127.4kbits/s\n[STDOUT RAW] total_size=15204352\n[STDOUT RAW] out_time_us=954481958\n[STDOUT RAW] out_time_ms=954481958\n[STDOUT RAW] out_time=00:15:54.481958\n[STDOUT RAW] dup_frames=0\n[STDOUT RAW] drop_frames=0\n[STDOUT RAW] speed= 154x\n[STDOUT RAW] progress=continue\n[STDERR RAW] size=   14848KiB time=00:15:54.48 bitrate= 127.4kbits/s speed= 154x\n[STDOUT RAW] bitrate= 127.4kbits/s\n[STDOUT RAW] total_size=16777216\n[STDOUT RAW] out_time_us=1053433958\n[STDOUT RAW] out_time_ms=1053433958\n[STDOUT RAW] out_time=00:17:33.433958\n[STDOUT RAW] dup_frames=0\n[STDOUT RAW] drop_frames=0\n[STDOUT RAW] speed= 157x\n[STDOUT RAW] progress=continue\n[STDERR RAW] size=   16384KiB time=00:17:33.43 bitrate= 127.4kbits/s speed= 157x\n[STDOUT RAW] bitrate= 127.1kbits/s\n[STDOUT RAW] total_size=18350080\n[STDOUT RAW] out_time_us=1154713958\n[STDOUT RAW] out_time_ms=1154713958\n[STDOUT RAW] out_time=00:19:14.713958\n[STDOUT RAW] dup_frames=0\n[STDOUT RAW] drop_frames=0\n[STDOUT RAW] speed= 160x\n[STDOUT RAW] progress=continue\n[STDERR RAW] size=   17920KiB time=00:19:14.71 bitrate= 127.1kbits/s speed= 160x\n[STDOUT RAW] bitrate= 127.3kbits/s\n[STDOUT RAW] total_size=19922944\n[STDOUT RAW] out_time_us=1252225958\n[STDOUT RAW] out_time_ms=1252225958\n[STDOUT RAW] out_time=00:20:52.225958\n[STDOUT RAW] dup_frames=0\n[STDOUT RAW] drop_frames=0\n[STDOUT RAW] speed= 161x\n[STDOUT RAW] progress=continue\n[STDERR RAW] size=   19456KiB time=00:20:52.22 bitrate= 127.3kbits/s speed= 161x\n[STDOUT RAW] bitrate= 126.4kbits/s\n[STDOUT RAW] total_size=21233664\n[STDOUT RAW] out_time_us=1343617958\n[STDOUT RAW] out_time_ms=1343617958\n[STDOUT RAW] out_time=00:22:23.617958\n[STDOUT RAW] dup_frames=0\n[STDOUT RAW] drop_frames=0\n[STDOUT RAW] speed= 162x\n[STDOUT RAW] progress=continue\n[STDERR RAW] size=   20736KiB time=00:22:23.61 bitrate= 126.4kbits/s speed= 162x\n[STDOUT RAW] bitrate= 126.9kbits/s\n[STDOUT RAW] total_size=22806528\n[STDOUT RAW] out_time_us=1438225958\n[STDOUT RAW] out_time_ms=1438225958\n[STDOUT RAW] out_time=00:23:58.225958\n[STDOUT RAW] dup_frames=0\n[STDOUT RAW] drop_frames=0\n[STDOUT RAW] speed= 164x\n[STDOUT RAW] progress=continue\n[STDERR RAW] size=   22272KiB time=00:23:58.22 bitrate= 126.9kbits/s speed= 164x\n[STDOUT RAW] bitrate= 127.7kbits/s\n[STDOUT RAW] total_size=24379392\n[STDOUT RAW] out_time_us=1526737958\n[STDOUT RAW] out_time_ms=1526737958\n[STDOUT RAW] out_time=00:25:26.737958\n[STDOUT RAW] dup_frames=0\n[STDOUT RAW] drop_frames=0\n[STDOUT RAW] speed= 164x\n[STDOUT RAW] progress=continue\n[STDERR RAW] size=   23808KiB time=00:25:26.73 bitrate= 127.7kbits/s speed= 164x\n[STDOUT RAW] bitrate= 126.7kbits/s\n[STDOUT RAW] total_size=25690112\n[STDOUT RAW] out_time_us=1622137958\n[STDOUT RAW] out_time_ms=1622137958\n[STDOUT RAW] out_time=00:27:02.137958\n[STDOUT RAW] dup_frames=0\n[STDOUT RAW] drop_frames=0\n[STDOUT RAW] speed= 165x\n[STDOUT RAW] progress=continue\n[STDERR RAW] size=   25088KiB time=00:27:02.13 bitrate= 126.7kbits/s speed= 165x\n[STDOUT RAW] bitrate= 126.8kbits/s\n[STDOUT RAW] total_size=27262976\n[STDOUT RAW] out_time_us=1720273958\n[STDOUT RAW] out_time_ms=1720273958\n[STDOUT RAW] out_time=00:28:40.273958\n[STDOUT RAW] dup_frames=0\n[STDOUT RAW] drop_frames=0\n[STDOUT RAW] speed= 167x\n[STDOUT RAW] progress=continue\n[STDERR RAW] size=   26624KiB time=00:28:40.27 bitrate= 126.8kbits/s speed= 167x\n[STDOUT RAW] bitrate= 128.0kbits/s\n[STDOUT RAW] total_size=29097984\n[STDOUT RAW] out_time_us=1818745958\n[STDOUT RAW] out_time_ms=1818745958\n[STDOUT RAW] out_time=00:30:18.745958\n[STDOUT RAW] dup_frames=0\n[STDOUT RAW] drop_frames=0\n[STDOUT RAW] speed= 168x\n[STDOUT RAW] progress=continue\n[STDERR RAW] size=   28416KiB time=00:30:18.74 bitrate= 128.0kbits/s speed= 168x\n[STDOUT RAW] bitrate= 127.8kbits/s\n[STDOUT RAW] total_size=30670848\n[STDOUT RAW] out_time_us=1919425958\n[STDOUT RAW] out_time_ms=1919425958\n[STDOUT RAW] out_time=00:31:59.425958\n[STDOUT RAW] dup_frames=0\n[STDOUT RAW] drop_frames=0\n[STDOUT RAW] speed= 169x\n[STDOUT RAW] progress=continue\n[STDERR RAW] size=   29952KiB time=00:31:59.42 bitrate= 127.8kbits/s speed= 169x\n[STDOUT RAW] bitrate= 127.2kbits/s\n[STDOUT RAW] total_size=31981568\n[STDOUT RAW] out_time_us=2010985958\n[STDOUT RAW] out_time_ms=2010985958\n[STDOUT RAW] out_time=00:33:30.985958\n[STDOUT RAW] dup_frames=0\n[STDOUT RAW] drop_frames=0\n[STDOUT RAW] speed= 169x\n[STDOUT RAW] progress=continue\n[STDERR RAW] size=   31232KiB time=00:33:30.98 bitrate= 127.2kbits/s speed= 169x\n[STDOUT RAW] bitrate= 127.8kbits/s\n[STDOUT RAW] total_size=33554432\n[STDOUT RAW] out_time_us=2100193958\n[STDOUT RAW] out_time_ms=2100193958\n[STDOUT RAW] out_time=00:35:00.193958\n[STDOUT RAW] dup_frames=0\n[STDOUT RAW] drop_frames=0\n[STDOUT RAW] speed= 169x\n[STDOUT RAW] progress=continue\n[STDERR RAW] size=   32768KiB time=00:35:00.19 bitrate= 127.8kbits/s speed= 169x\n[STDOUT RAW] bitrate= 127.8kbits/s\n[STDOUT RAW] total_size=35127296\n[STDOUT RAW] out_time_us=2199289958\n[STDOUT RAW] out_time_ms=2199289958\n[STDOUT RAW] out_time=00:36:39.289958\n[STDOUT RAW] dup_frames=0\n[STDOUT RAW] drop_frames=0\n[STDOUT RAW] speed= 170x\n[STDOUT RAW] progress=continue\n[STDERR RAW] size=   34304KiB time=00:36:39.28 bitrate= 127.8kbits/s speed= 170x\n[STDOUT RAW] bitrate= 127.9kbits/s\n[STDOUT RAW] total_size=36700160\n[STDOUT RAW] out_time_us=2295889958\n[STDOUT RAW] out_time_ms=2295889958\n[STDOUT RAW] out_time=00:38:15.889958\n[STDOUT RAW] dup_frames=0\n[STDOUT RAW] drop_frames=0\n[STDOUT RAW] speed= 171x\n[STDOUT RAW] progress=continue\n[STDERR RAW] size=   35840KiB time=00:38:15.88 bitrate= 127.9kbits/s speed= 171x\n[STDOUT RAW] bitrate= 127.3kbits/s\n[STDOUT RAW] total_size=38273024\n[STDOUT RAW] out_time_us=2404489958\n[STDOUT RAW] out_time_ms=2404489958\n[STDOUT RAW] out_time=00:40:04.489958\n[STDOUT RAW] dup_frames=0\n[STDOUT RAW] drop_frames=0\n[STDOUT RAW] speed= 172x\n[STDOUT RAW] progress=continue\n[STDERR RAW] size=   37376KiB time=00:40:04.48 bitrate= 127.3kbits/s speed= 172x\n[STDOUT RAW] bitrate= 127.3kbits/s\n[STDOUT RAW] total_size=39845888\n[STDOUT RAW] out_time_us=2504473958\n[STDOUT RAW] out_time_ms=2504473958\n[STDOUT RAW] out_time=00:41:44.473958\n[STDOUT RAW] dup_frames=0\n[STDOUT RAW] drop_frames=0\n[STDOUT RAW] speed= 173x\n[STDOUT RAW] progress=continue\n[STDERR RAW] size=   38912KiB time=00:41:44.47 bitrate= 127.3kbits/s speed= 173x\n[STDOUT RAW] bitrate= 127.2kbits/s\n[STDOUT RAW] total_size=41418752\n[STDOUT RAW] out_time_us=2605177958\n[STDOUT RAW] out_time_ms=2605177958\n[STDOUT RAW] out_time=00:43:25.177958\n[STDOUT RAW] dup_frames=0\n[STDOUT RAW] drop_frames=0\n[STDOUT RAW] speed= 174x\n[STDOUT RAW] progress=continue\n[STDERR RAW] size=   40448KiB time=00:43:25.17 bitrate= 127.2kbits/s speed= 174x\n[STDOUT RAW] bitrate= 127.6kbits/s\n[STDOUT RAW] total_size=43253760\n[STDOUT RAW] out_time_us=2712049958\n[STDOUT RAW] out_time_ms=2712049958\n[STDOUT RAW] out_time=00:45:12.049958\n[STDOUT RAW] dup_frames=0\n[STDOUT RAW] drop_frames=0\n[STDOUT RAW] speed= 175x\n[STDOUT RAW] progress=continue\n[STDERR RAW] size=   42240KiB time=00:45:12.04 bitrate= 127.6kbits/s speed= 175x\n[STDOUT RAW] bitrate= 127.4kbits/s\n[STDOUT RAW] total_size=44826624\n[STDOUT RAW] out_time_us=2815225958\n[STDOUT RAW] out_time_ms=2815225958\n[STDOUT RAW] out_time=00:46:55.225958\n[STDOUT RAW] dup_frames=0\n[STDOUT RAW] drop_frames=0\n[STDOUT RAW] speed= 176x\n[STDOUT RAW] progress=continue\n[STDERR RAW] size=   43776KiB time=00:46:55.22 bitrate= 127.4kbits/s speed= 176x\n[STDOUT RAW] bitrate= 127.3kbits/s\n[STDOUT RAW] total_size=46399488\n[STDOUT RAW] out_time_us=2916481958\n[STDOUT RAW] out_time_ms=2916481958\n[STDOUT RAW] out_time=00:48:36.481958\n[STDOUT RAW] dup_frames=0\n[STDOUT RAW] drop_frames=0\n[STDOUT RAW] speed= 176x\n[STDOUT RAW] progress=continue\n[STDERR RAW] size=   45312KiB time=00:48:36.48 bitrate= 127.3kbits/s speed= 176x\n[STDOUT RAW] bitrate= 127.7kbits/s\n[STDOUT RAW] total_size=48234496\n[STDOUT RAW] out_time_us=3020737958\n[STDOUT RAW] out_time_ms=3020737958\n[STDOUT RAW] out_time=00:50:20.737958\n[STDOUT RAW] dup_frames=0\n[STDOUT RAW] drop_frames=0\n[STDOUT RAW] speed= 177x\n[STDOUT RAW] progress=continue\n[STDOUT RAW] bitrate= 127.7kbits/s\n[STDOUT RAW] total_size=49807360\n[STDOUT RAW] out_time_us=3121105958\n[STDERR RAW] size=   47104KiB time=00:50:20.73 bitrate= 127.7kbits/s speed= 177x\n[STDOUT RAW] out_time_ms=3121105958\n[STDOUT RAW] out_time=00:52:01.105958\n[STDOUT RAW] dup_frames=0\n[STDOUT RAW] drop_frames=0\n[STDOUT RAW] speed= 178x\n[STDOUT RAW] progress=continue\n[STDERR RAW] size=   48640KiB time=00:52:01.10 bitrate= 127.7kbits/s speed= 178x\n[STDOUT RAW] bitrate= 127.5kbits/s\n[STDOUT RAW] total_size=51380224\n[STDOUT RAW] out_time_us=3223177958\n[STDOUT RAW] out_time_ms=3223177958\n[STDOUT RAW] out_time=00:53:43.177958\n[STDOUT RAW] dup_frames=0\n[STDOUT RAW] drop_frames=0\n[STDOUT RAW] speed= 178x\n[STDOUT RAW] progress=continue\n[STDERR RAW] size=   50176KiB time=00:53:43.17 bitrate= 127.5kbits/s speed= 178x\n[STDOUT RAW] bitrate= 127.4kbits/s\n[STDOUT RAW] total_size=52953088\n[STDOUT RAW] out_time_us=3326089958\n[STDOUT RAW] out_time_ms=3326089958\n[STDOUT RAW] out_time=00:55:26.089958\n[STDOUT RAW] dup_frames=0\n[STDOUT RAW] drop_frames=0\n[STDOUT RAW] speed= 179x\n[STDOUT RAW] progress=continue\n[STDERR RAW] size=   51712KiB time=00:55:26.08 bitrate= 127.4kbits/s speed= 179x\n[STDERR RAW] size=   53161KiB time=00:56:42.20 bitrate= 128.0kbits/s speed= 179x\n[STDOUT RAW] bitrate= 128.0kbits/s\n[STDOUT RAW] total_size=54436652\n[STDOUT RAW] out_time_us=3402208667\n[STDOUT RAW] out_time_ms=3402208667\n[STDOUT RAW] out_time=00:56:42.208667\n[STDOUT RAW] dup_frames=0\n[STDOUT RAW] drop_frames=0\n[STDOUT RAW] speed= 179x\n[STDOUT RAW] progress=end\n[ConversionWorker] STDERR pipe closed signal received.\n[ConversionWorker] Detected 'progress=end' for 高冷12.wav\n[ConversionWorker] STDOUT pipe closed signal received.\n[ConversionWorker] Process finished and both stream pipes closed. Exiting loop.\n[ConversionWorker] Waiting for reader threads to join...\n[ConversionWorker] FFmpeg process ended. Return code: 0\n[ConversionWorker] Closing FFmpeg log file.\n